<?xml version="1.0" encoding="utf-8"?>
<!-- Generator: Adobe Illustrator 24.0.1, SVG Export Plug-In . SVG Version: 6.00 Build 0)  -->
<svg version="1.1" id="Layer_1" xmlns="http://www.w3.org/2000/svg" xmlns:xlink="http://www.w3.org/1999/xlink" x="0px" y="0px"
	 viewBox="0 0 1536 216" style="enable-background:new 0 0 1536 216;" xml:space="preserve">
<style type="text/css">
	.st0{clip-path:url(#SVGID_2_);fill:none;stroke:#E79195;stroke-width:0;stroke-miterlimit:10;}
	.st1{clip-path:url(#SVGID_2_);fill:none;stroke:#7F7F7F;stroke-width:0;stroke-miterlimit:10;}
	.st2{fill:none;stroke:#671216;stroke-width:0;stroke-miterlimit:10;}
	.st3{fill:none;stroke:#7F7F7F;stroke-width:0;stroke-miterlimit:10;}
	.st4{fill:none;stroke:#E79195;stroke-width:0;stroke-miterlimit:10;}
	.st5{fill:#CE242B;}
</style>
<g>
	<g>
		<defs>
			<polygon id="SVGID_1_" points="0,0 1536,0 1536,216 0,216 0,0 			"/>
		</defs>
		<clipPath id="SVGID_2_">
			<use xlink:href="#SVGID_1_"  style="overflow:visible;"/>
		</clipPath>
		<path class="st0" d="M66.77,0c-7.24,2.02-9.25,8.89-11.16,15.33c-3.21,10.89-6.37,21.71-9.46,32.46
			c-0.14,0.49,0.08,1.01,0.53,1.25c25.13,13.63,62.19,14.21,87.55,0.96c1.51-0.79,2.45-2.02,1.95-3.69
			c-3.51-11.68-7-23.36-10.47-35.05c-1.59-5.34-4.03-9.82-9.65-11.26"/>
		<path class="st1" d="M38.42,91.28c-14.65,3.15-25.2,10.45-31.63,21.88c-17.14,30.48,6.85,66.96,41.35,64.22
			c17.31-1.37,32.62-13.98,37.52-30.45c3.79-12.73,1.91-25.09-5.65-37.1"/>
		<path class="st0" d="M80.01,109.83c8.34,1.05,14.28,1.23,22.49-0.07"/>
		<path class="st1" d="M102.5,109.76c-5.63,8.76-8.11,17.94-7.44,27.53c2.36,34.2,43.32,53.2,70.45,30.41
			c0.67-0.57,1.29-0.52,1.85,0.17c2.64,3.23,5.28,6.34,7.93,9.32c1.48,1.66,0.95,2.16,0.49,4.06c-0.82,3.43,0.64,6.39,3.2,9.01
			c8.77,8.98,16.27,16.48,22.5,22.5c9.65,9.32,26.96-7.89,17.09-17.84c-7.11-7.16-14.27-14.29-21.48-21.39
			c-3.82-3.76-7.01-5.03-12.06-3.37c-0.27,0.09-0.57,0.01-0.76-0.21l-9.7-11.25c-0.11-0.13-0.13-0.33-0.05-0.49
			c15.88-29.17,1.69-60.29-30.21-66.84"/>
		<path class="st0" d="M144.31,91.37c14.29-9.33,26.39-20.52,36.28-33.56c2.08-2.74,2.89-7.28-1.23-8.66
			c-1.15-0.39-1.94-0.54-2.37-0.45c-9.77,2.06-19.57,4-29.39,5.82c-13.12,2.42-23.46,8.18-35.16,10.17
			c-20.84,3.55-44.78,2.03-64.39-7.36c-1.97-0.95-3.93-1.57-5.87-1.88c-11.26-1.79-22.5-3.72-33.71-5.79
			C-7.64,46.68,4.9,62.01,8.04,65.49c8.58,9.5,18.71,18.1,30.38,25.79"/>
	</g>
	<path class="st2" d="M144.31,91.37c-12.94,8.65-26.88,14.78-41.81,18.39 M80.01,109.83c-5.53-1.35-10.1-2.73-13.7-4.14
		c-9.47-3.71-18.77-8.52-27.89-14.41"/>
	<path class="st3" d="M1160.33,59.36c-0.37,0.53-0.56,0.93-0.56,1.21c-0.02,7.18-0.03,14.16-0.02,20.94c0,0.83-0.41,1.24-1.24,1.24
		h-14.35c-1.33,0-2.4,1.07-2.41,2.4v13.72c0,1.75,0.87,2.63,2.62,2.63h14.87c0.29,0,0.53,0.23,0.52,0.52
		c-0.03,12.35-0.03,24.71,0.02,37.09c0.05,15.44,4.19,28.51,21.25,30.13c9.41,0.89,19.41,1.11,30.01,0.66
		c2.26-0.1,3.12-0.49,3.16-2.91c0.09-4.56,0.09-9.07,0.02-13.52c-0.02-1.32-1.13-2.37-2.45-2.31c-5.85,0.25-11.75,0.19-17.68-0.18
		c-8.84-0.55-11.46-4.37-11.56-13c-0.11-9.02-0.1-21.02,0.03-35.99c0-0.33,0.16-0.49,0.49-0.49h27.82c1.31,0,2.38-1.07,2.38-2.38V85
		c0-1.24-1.01-2.25-2.25-2.25h-28c-0.28,0-0.5-0.22-0.5-0.5V60.97c0-1.51-1.22-2.73-2.73-2.74c-5.95-0.01-11.85,0.07-17.7,0.24
		C1161.3,58.5,1160.72,58.79,1160.33,59.36 M1478.73,102c0.03,13.25,0.04,26.51,0.03,39.76c-0.01,14.19,5.6,25.92,21.28,27.46
		c9.65,0.95,19.95,1.13,30.9,0.52c1.43-0.08,2.17-0.89,2.22-2.43c0.15-4.59,0.16-9.21,0.02-13.87c-0.04-1.31-1.14-2.34-2.45-2.28
		c-5.83,0.25-11.71,0.19-17.64-0.17c-8.13-0.5-11.56-3.94-11.58-12.25c-0.03-12.23-0.03-24.47,0-36.74c0-0.33,0.17-0.5,0.51-0.5
		H1530c1.24,0,2.25-1.01,2.25-2.25V85c0-1.24-1.01-2.25-2.25-2.25h-28c-0.28,0-0.5-0.22-0.5-0.5V60.99c0-1.52-1.24-2.76-2.76-2.75
		l-17.22,0.04c-1.85,0-2.77,0.92-2.77,2.77V81.5c0,0.83-0.42,1.25-1.25,1.25h-14.25c-1.67,0-2.5,0.83-2.5,2.5v13.5
		c0,1.83,0.92,2.75,2.75,2.75h14.73C1478.56,101.5,1478.73,101.67,1478.73,102 M278.85,148.17c0.22-0.41,0.65-0.67,1.12-0.67h73.28
		c0.35,0,0.62,0.16,0.8,0.47l11.13,20.07c0.67,1.21,1.95,1.96,3.33,1.96h21.13c1.3,0,2.19-1.32,1.69-2.53
		c-0.07-0.18-0.17-0.37-0.28-0.58c-17.83-32.83-35.8-65.58-53.91-98.24c-3.6-6.5-9.13-9.81-16.58-9.93
		c-14.25-0.22-19.79-0.46-26.87,12.47c-17.43,31.83-34.88,63.8-52.37,95.9c-0.52,0.95-0.05,2.14,0.97,2.49
		c1.09,0.38,2.5,0.57,4.21,0.58c6.61,0.01,12.98-0.13,19.13-0.4c1.08-0.05,2.05-0.66,2.56-1.61L278.85,148.17 M876.24,62.88v102.96
		c0,2.28,1.85,4.13,4.13,4.13h83.82c21.99,0,39.81-16.91,39.81-37.78V96.53c0-20.87-17.82-37.78-39.81-37.78h-83.82
		C878.09,58.75,876.24,60.6,876.24,62.88 M437.96,82.78c-18.75,0.05-34.72,6.52-34.75,28.24c-0.02,18.69,0.01,37.33,0.08,55.93
		c0.01,2.01,1.02,3.02,3.04,3.03l16.78,0.03c1.6,0,2.89-1.29,2.89-2.89c0-16.19,0-32.5,0.01-48.95
		c0.01-12.22,6.66-15.17,17.49-15.18c14.81-0.01,29.62,0.08,44.43,0.28c11.33,0.16,13.79,5.3,13.79,15.73
		c0,15.93,0.02,31.75,0.05,47.45c0,2.38,1.19,3.57,3.58,3.56l16.36-0.04c1.55,0,2.81-1.26,2.81-2.82c-0.01-17.6-0.06-35.4-0.13-53.4
		c-0.09-22.45-12.15-30.82-33.14-30.98C483.18,82.7,465.41,82.71,437.96,82.78 M576,82.85c-17.75,0.08-32.07,6.47-33.08,26.34
		c-0.64,12.51-0.61,24.19,0.08,35.05c1.39,21.84,18.07,25.73,36.5,25.77c16.65,0.04,33.29-0.02,49.93-0.18
		c39.93-0.38,33.95-27.75,33.79-56.25c-0.13-22.65-12.33-30.71-33.97-30.77C611.5,82.76,593.75,82.77,576,82.85 M717.46,82.78
		c-18.7,0.07-35.45,5.75-35.47,27.98c-0.01,17.79-0.01,35.57,0.01,53.36c0,3.09-0.77,5.81,3.74,5.89
		c5.67,0.11,11.14,0.03,16.39-0.23c1.47-0.07,2.63-1.29,2.63-2.76c-0.02-15.86-0.02-31.64,0.01-47.33
		c0.03-12.25,4.21-16.57,16.48-16.62c15.23-0.06,30.45,0.01,45.68,0.2c9.68,0.12,13.61,4.76,13.58,14.23
		c-0.04,16.14-0.09,32.29-0.16,48.45c-0.01,2.56,1.37,3.89,4.13,3.98c5.67,0.18,11.15,0.12,16.43-0.18c1.3-0.07,2.32-1.15,2.32-2.45
		c0.05-18.77,0.04-37.51-0.03-56.24c-0.07-19.68-13.92-28.04-31.76-28.26C762.39,82.69,744.4,82.68,717.46,82.78 M1055.39,82.78
		c-17.02,0.04-33.26,4.61-34.99,24.73c-0.64,7.43-0.7,18.78-0.17,34.05c0.78,23.03,15.47,28.31,35.52,28.37
		c23.72,0.07,47.48,0.09,71.28,0.07c1.13-0.01,2.07-0.88,2.15-2.01c0.33-4.78-0.07-9.56,0.16-14.47c0.09-1.83-0.88-2.75-2.9-2.75
		c-22.23-0.03-44.46-0.03-66.69-0.01c-11.89,0.01-18.39-3.83-16.91-17.01c0.05-0.43,0.42-0.76,0.85-0.76
		c26.02,0.03,52.09,0.02,78.22-0.01c9.58-0.01,9.86-3.32,10.12-12.17c0.52-18.07,2.04-38-22.78-38.05
		C1091.3,82.73,1073.34,82.73,1055.39,82.78 M1245.85,133.68c0.05-0.46,0.31-0.69,0.78-0.69c25.78,0.03,51.51,0.02,77.18-0.02
		c6.44-0.01,10.83-0.62,11.06-7.95c0.24-7.73,0.17-14.69-0.21-20.88c-0.93-15.14-8.02-21.36-23.41-21.38
		c-17.48-0.03-34.96-0.02-52.43,0.01c-16.52,0.04-32.82,3.99-35.12,22.85c-1.36,11.23-0.73,23.04-0.67,34.36
		c0.18,32.24,25.49,29.45,48.17,29.89c19.4,0.37,38.88,0.15,58.31,0.12c1.83-0.01,2.74-0.92,2.74-2.75V153
		c0-1.11-0.92-1.99-2.03-1.94c-1.26,0.05-2.68-0.32-3.96-0.32c-21.23,0.03-42.47,0.02-63.7-0.01
		C1250.22,150.71,1244.33,146.48,1245.85,133.68 M1385.06,150.71c-7.97-0.01-13.11-3.89-13.64-12.14
		c-0.58-9.09-0.55-17.45,0.08-25.06c0.72-8.75,6.55-11.44,14.5-11.45c21.44-0.03,42.82-0.06,64.15-0.08c1.58,0,2.87-1.29,2.86-2.87
		l-0.08-14.24c-0.01-1.17-0.95-2.11-2.12-2.11c-22.15-0.03-44.37-0.02-66.68,0.02c-22.44,0.03-35.82,6.86-35.86,31.72
		c-0.04,30.79-5.13,55.51,36.23,55.5c21.99,0,43.86,0,65.63,0c1.58,0,2.86-1.28,2.86-2.86l-0.02-13.52
		c-0.01-1.59-1.3-2.88-2.89-2.87C1428.51,150.76,1406.83,150.75,1385.06,150.71 M111.83,184.42l-20.64-18.01
		c-0.41-0.36-1.02-0.36-1.43,0l-20.89,18.2c-0.42,0.37-0.51,0.99-0.22,1.47c5.79,9.57,12.92,18.01,21.41,25.32
		c0.25,0.21,0.5,0.21,0.75-0.01c8.1-7.29,16.41-15.76,21.29-25.6C112.34,185.33,112.22,184.76,111.83,184.42"/>
	<path class="st4" d="M70.1,0c5.1,1.57,10.1,3.49,15.01,5.75c9.54,4.4,18.49-3.65,27.72-5.75 M135.04,82.89
		c-27.88,13.84-57.84,13.93-85.95,0.79c-0.39-0.18-0.75,0.3-0.46,0.62c6.58,7.34,19.93,11.76,29.24,13.83
		c18.03,4,44.69-1.97,57.74-14.43c0.18-0.17,0.21-0.45,0.06-0.65C135.53,82.85,135.26,82.78,135.04,82.89"/>
	<path class="st3" d="M313.85,83.14c-8.05,14.93-16,29.79-23.87,44.58c-0.45,0.85-0.2,1.28,0.76,1.28h51.74
		c0.6,0,0.98-0.64,0.7-1.17l-24.15-44.36c-0.12-0.23-0.27-0.43-0.45-0.61C316.6,80.86,315.02,80.95,313.85,83.14 M900.5,83.04v62.66
		c0,1.15,0.94,2.09,2.09,2.09h56.99c11.13,0,20.16-9.02,20.16-20.14v-26.56c0-11.12-9.03-20.14-20.16-20.14h-56.99
		C901.44,80.95,900.5,81.89,900.5,83.04 M640.66,114.46c0.01-7.09-5.72-12.84-12.81-12.85l-49.44-0.09
		c-7.08-0.02-12.84,5.72-12.85,12.81l-0.04,24c-0.01,7.09,5.72,12.84,12.81,12.85l49.44,0.09c7.08,0.02,12.84-5.72,12.85-12.81
		L640.66,114.46 M1055.94,100.62c-10.79,0.12-14.77,8.03-12.94,17.77c0.05,0.25,0.2,0.37,0.45,0.37l63.58-0.01
		c1.63,0,2.51-0.82,2.62-2.45c0.62-8.7,1.24-15.69-9.92-15.76C1085.14,100.45,1070.54,100.47,1055.94,100.62 M1246.93,107.35
		c-1.45,3.56-0.92,6.73-1.37,10.36c-0.07,0.55,0.36,1.04,0.92,1.04h64.02c1.01,0,1.86-0.78,1.94-1.79
		c0.43-5.16,1.57-16.15-6.51-16.39c-7.29-0.22-22.95-0.22-46.98-0.01C1254.02,100.6,1248.91,102.5,1246.93,107.35 M76.88,134.39
		c0-17.98-14.58-32.56-32.56-32.56c-17.98,0-32.56,14.58-32.56,32.56c0,17.98,14.58,32.56,32.56,32.56
		C62.3,166.95,76.88,152.37,76.88,134.39 M170.66,134.39c0-17.98-14.58-32.56-32.56-32.56s-32.56,14.58-32.56,32.56
		c0,17.98,14.58,32.56,32.56,32.56S170.66,152.37,170.66,134.39 M29.93,130.14c-3.35,16,15.65,25.9,26.71,14.22
		c3.87-4.08,5.02-8.83,3.47-14.26c-0.18-0.62-0.79-1.01-1.43-0.91c-2.53,0.41-7.24,1.47-9.53,0.69c-3-1-4.57-7.45-5.13-10.17
		c-0.18-0.82-0.99-1.34-1.81-1.16C35.31,120.1,31.22,123.96,29.93,130.14 M152.46,129.22c-3.29,0.22-10.34,2.5-12.12-1.29
		c-1.33-2.83-2.3-5.37-2.91-7.64c-0.35-1.33-1.73-2.1-3.04-1.7c-12.65,3.82-15.77,20.72-4.91,27.95
		c10.69,7.11,24.1,0.42,24.69-12.46c0.07-1.49-0.24-2.96-0.93-4.41C153.08,129.35,152.82,129.2,152.46,129.22"/>
	<path class="st5" d="M66.77,0h3.33c5.1,1.57,10.1,3.49,15.01,5.75c9.54,4.4,18.49-3.65,27.72-5.75h3.23
		c5.62,1.44,8.06,5.92,9.65,11.26c3.47,11.69,6.96,23.37,10.47,35.05c0.5,1.67-0.44,2.9-1.95,3.69
		c-25.36,13.25-62.42,12.67-87.55-0.96c-0.45-0.24-0.67-0.76-0.53-1.25c3.09-10.75,6.25-21.57,9.46-32.46
		C57.52,8.89,59.53,2.02,66.77,0L66.77,0z"/>
	<path class="st5" d="M144.31,91.37c-12.94,8.65-26.88,14.78-41.81,18.39c-8.21,1.3-14.15,1.12-22.49,0.07
		c-5.53-1.35-10.1-2.73-13.7-4.14c-9.47-3.71-18.77-8.52-27.89-14.41c-11.67-7.69-21.8-16.29-30.38-25.79
		C4.9,62.01-7.64,46.68,8.47,49.66c11.21,2.07,22.45,4,33.71,5.79c1.94,0.31,3.9,0.93,5.87,1.88c19.61,9.39,43.55,10.91,64.39,7.36
		c11.7-1.99,22.04-7.75,35.16-10.17c9.82-1.82,19.62-3.76,29.39-5.82c0.43-0.09,1.22,0.06,2.37,0.45c4.12,1.38,3.31,5.92,1.23,8.66
		C170.7,70.85,158.6,82.04,144.31,91.37 M135.04,82.89c-27.88,13.84-57.84,13.93-85.95,0.79c-0.39-0.18-0.75,0.3-0.46,0.62
		c6.58,7.34,19.93,11.76,29.24,13.83c18.03,4,44.69-1.97,57.74-14.43c0.18-0.17,0.21-0.45,0.06-0.65
		C135.53,82.85,135.26,82.78,135.04,82.89L135.04,82.89z"/>
	<path d="M1160.33,59.36c0.39-0.57,0.97-0.86,1.74-0.89c5.85-0.17,11.75-0.25,17.7-0.24c1.51,0.01,2.73,1.23,2.73,2.74v21.28
		c0,0.28,0.22,0.5,0.5,0.5h28c1.24,0,2.25,1.01,2.25,2.25v14.12c0,1.31-1.07,2.38-2.38,2.38h-27.82c-0.33,0-0.49,0.16-0.49,0.49
		c-0.13,14.97-0.14,26.97-0.03,35.99c0.1,8.63,2.72,12.45,11.56,13c5.93,0.37,11.83,0.43,17.68,0.18c1.32-0.06,2.43,0.99,2.45,2.31
		c0.07,4.45,0.07,8.96-0.02,13.52c-0.04,2.42-0.9,2.81-3.16,2.91c-10.6,0.45-20.6,0.23-30.01-0.66
		c-17.06-1.62-21.2-14.69-21.25-30.13c-0.05-12.38-0.05-24.74-0.02-37.09c0.01-0.29-0.23-0.52-0.52-0.52h-14.87
		c-1.75,0-2.62-0.88-2.62-2.63V85.15c0.01-1.33,1.08-2.4,2.41-2.4h14.35c0.83,0,1.24-0.41,1.24-1.24c-0.01-6.78,0-13.76,0.02-20.94
		C1159.77,60.29,1159.96,59.89,1160.33,59.36L1160.33,59.36z"/>
	<path d="M1478.23,101.5h-14.73c-1.83,0-2.75-0.92-2.75-2.75v-13.5c0-1.67,0.83-2.5,2.5-2.5h14.25c0.83,0,1.25-0.42,1.25-1.25V61.05
		c0-1.85,0.92-2.77,2.77-2.77l17.22-0.04c1.52-0.01,2.76,1.23,2.76,2.75v21.26c0,0.28,0.22,0.5,0.5,0.5h28
		c1.24,0,2.25,1.01,2.25,2.25v14.25c0,1.24-1.01,2.25-2.25,2.25h-27.98c-0.34,0-0.51,0.17-0.51,0.5c-0.03,12.27-0.03,24.51,0,36.74
		c0.02,8.31,3.45,11.75,11.58,12.25c5.93,0.36,11.81,0.42,17.64,0.17c1.31-0.06,2.41,0.97,2.45,2.28c0.14,4.66,0.13,9.28-0.02,13.87
		c-0.05,1.54-0.79,2.35-2.22,2.43c-10.95,0.61-21.25,0.43-30.9-0.52c-15.68-1.54-21.29-13.27-21.28-27.46
		c0.01-13.25,0-26.51-0.03-39.76C1478.73,101.67,1478.56,101.5,1478.23,101.5L1478.23,101.5z"/>
	<path d="M278.85,148.17l-10.66,19.98c-0.51,0.95-1.48,1.56-2.56,1.61c-6.15,0.27-12.52,0.41-19.13,0.4
		c-1.71-0.01-3.12-0.2-4.21-0.58c-1.02-0.35-1.49-1.54-0.97-2.49c17.49-32.1,34.94-64.07,52.37-95.9
		c7.08-12.93,12.62-12.69,26.87-12.47c7.45,0.12,12.98,3.43,16.58,9.93c18.11,32.66,36.08,65.41,53.91,98.24
		c0.11,0.21,0.21,0.4,0.28,0.58c0.5,1.21-0.39,2.53-1.69,2.53h-21.13c-1.38,0-2.66-0.75-3.33-1.96l-11.13-20.07
		c-0.18-0.31-0.45-0.47-0.8-0.47h-73.28C279.5,147.5,279.07,147.76,278.85,148.17 M313.85,83.14c-8.05,14.93-16,29.79-23.87,44.58
		c-0.45,0.85-0.2,1.28,0.76,1.28h51.74c0.6,0,0.98-0.64,0.7-1.17l-24.15-44.36c-0.12-0.23-0.27-0.43-0.45-0.61
		C316.6,80.86,315.02,80.95,313.85,83.14L313.85,83.14z"/>
	<path d="M876.24,62.88c0-2.28,1.85-4.13,4.13-4.13h83.82c21.99,0,39.81,16.91,39.81,37.78v35.66c0,20.87-17.82,37.78-39.81,37.78
		h-83.82c-2.28,0-4.13-1.85-4.13-4.13V62.88 M900.5,83.04v62.66c0,1.15,0.94,2.09,2.09,2.09h56.99c11.13,0,20.16-9.02,20.16-20.14
		v-26.56c0-11.12-9.03-20.14-20.16-20.14h-56.99C901.44,80.95,900.5,81.89,900.5,83.04L900.5,83.04z"/>
	<path d="M403.21,111.02c0.03-21.72,16-28.19,34.75-28.24c27.45-0.07,45.22-0.08,53.29-0.01c20.99,0.16,33.05,8.53,33.14,30.98
		c0.07,18,0.12,35.8,0.13,53.4c0,1.56-1.26,2.82-2.81,2.82l-16.36,0.04c-2.39,0.01-3.58-1.18-3.58-3.56
		c-0.03-15.7-0.05-31.52-0.05-47.45c0-10.43-2.46-15.57-13.79-15.73c-14.81-0.2-29.62-0.29-44.43-0.28
		c-10.83,0.01-17.48,2.96-17.49,15.18C426,134.62,426,150.93,426,167.12c0,1.6-1.29,2.89-2.89,2.89l-16.78-0.03
		c-2.02-0.01-3.03-1.02-3.04-3.03C403.22,148.35,403.19,129.71,403.21,111.02L403.21,111.02z"/>
	<path d="M542.92,109.19c1.01-19.87,15.33-26.26,33.08-26.34c17.75-0.08,35.5-0.09,53.25-0.04c21.64,0.06,33.84,8.12,33.97,30.77
		c0.16,28.5,6.14,55.87-33.79,56.25c-16.64,0.16-33.28,0.22-49.93,0.18c-18.43-0.04-35.11-3.93-36.5-25.77
		C542.31,133.38,542.28,121.7,542.92,109.19 M640.66,114.46c0.01-7.09-5.72-12.84-12.81-12.85l-49.44-0.09
		c-7.08-0.02-12.84,5.72-12.85,12.81l-0.04,24c-0.01,7.09,5.72,12.84,12.81,12.85l49.44,0.09c7.08,0.02,12.84-5.72,12.85-12.81
		L640.66,114.46L640.66,114.46z"/>
	<path d="M681.99,110.76c0.02-22.23,16.77-27.91,35.47-27.98c26.94-0.1,44.93-0.09,53.98,0.02c17.84,0.22,31.69,8.58,31.76,28.26
		c0.07,18.73,0.08,37.47,0.03,56.24c0,1.3-1.02,2.38-2.32,2.45c-5.28,0.3-10.76,0.36-16.43,0.18c-2.76-0.09-4.14-1.42-4.13-3.98
		c0.07-16.16,0.12-32.31,0.16-48.45c0.03-9.47-3.9-14.11-13.58-14.23c-15.23-0.19-30.45-0.26-45.68-0.2
		c-12.27,0.05-16.45,4.37-16.48,16.62c-0.03,15.69-0.03,31.47-0.01,47.33c0,1.47-1.16,2.69-2.63,2.76
		c-5.25,0.26-10.72,0.34-16.39,0.23c-4.51-0.08-3.74-2.8-3.74-5.89C681.98,146.33,681.98,128.55,681.99,110.76L681.99,110.76z"/>
	<path d="M1020.4,107.51c1.73-20.12,17.97-24.69,34.99-24.73c17.95-0.05,35.91-0.05,53.86-0.02c24.82,0.05,23.3,19.98,22.78,38.05
		c-0.26,8.85-0.54,12.16-10.12,12.17c-26.13,0.03-52.2,0.04-78.22,0.01c-0.43,0-0.8,0.33-0.85,0.76
		c-1.48,13.18,5.02,17.02,16.91,17.01c22.23-0.02,44.46-0.02,66.69,0.01c2.02,0,2.99,0.92,2.9,2.75c-0.23,4.91,0.17,9.69-0.16,14.47
		c-0.08,1.13-1.02,2-2.15,2.01c-23.8,0.02-47.56,0-71.28-0.07c-20.05-0.06-34.74-5.34-35.52-28.37
		C1019.7,126.29,1019.76,114.94,1020.4,107.51 M1055.94,100.62c-10.79,0.12-14.77,8.03-12.94,17.77c0.05,0.25,0.2,0.37,0.45,0.37
		l63.58-0.01c1.63,0,2.51-0.82,2.62-2.45c0.62-8.7,1.24-15.69-9.92-15.76C1085.14,100.45,1070.54,100.47,1055.94,100.62
		L1055.94,100.62z"/>
	<path d="M1245.85,133.68c-1.52,12.8,4.37,17.03,16.71,17.05c21.23,0.03,42.47,0.04,63.7,0.01c1.28,0,2.7,0.37,3.96,0.32
		c1.11-0.05,2.03,0.83,2.03,1.94v14.24c0,1.83-0.91,2.74-2.74,2.75c-19.43,0.03-38.91,0.25-58.31-0.12
		c-22.68-0.44-47.99,2.35-48.17-29.89c-0.06-11.32-0.69-23.13,0.67-34.36c2.3-18.86,18.6-22.81,35.12-22.85
		c17.47-0.03,34.95-0.04,52.43-0.01c15.39,0.02,22.48,6.24,23.41,21.38c0.38,6.19,0.45,13.15,0.21,20.88
		c-0.23,7.33-4.62,7.94-11.06,7.95c-25.67,0.04-51.4,0.05-77.18,0.02C1246.16,132.99,1245.9,133.22,1245.85,133.68 M1246.93,107.35
		c-1.45,3.56-0.92,6.73-1.37,10.36c-0.07,0.55,0.36,1.04,0.92,1.04h64.02c1.01,0,1.86-0.78,1.94-1.79
		c0.43-5.16,1.57-16.15-6.51-16.39c-7.29-0.22-22.95-0.22-46.98-0.01C1254.02,100.6,1248.91,102.5,1246.93,107.35L1246.93,107.35z"
		/>
	<path d="M1371.42,138.57c0.53,8.25,5.67,12.13,13.64,12.14c21.77,0.04,43.45,0.05,65.02,0.04c1.59-0.01,2.88,1.28,2.89,2.87
		l0.02,13.52c0,1.58-1.28,2.86-2.86,2.86c-21.77,0-43.64,0-65.63,0c-41.36,0.01-36.27-24.71-36.23-55.5
		c0.04-24.86,13.42-31.69,35.86-31.72c22.31-0.04,44.53-0.05,66.68-0.02c1.17,0,2.11,0.94,2.12,2.11l0.08,14.24
		c0.01,1.58-1.28,2.87-2.86,2.87c-21.33,0.02-42.71,0.05-64.15,0.08c-7.95,0.01-13.78,2.7-14.5,11.45
		C1370.87,121.12,1370.84,129.48,1371.42,138.57L1371.42,138.57z"/>
	<path d="M38.42,91.28c9.12,5.89,18.42,10.7,27.89,14.41c3.6,1.41,8.17,2.79,13.7,4.14c7.56,12.01,9.44,24.37,5.65,37.1
		c-4.9,16.47-20.21,29.08-37.52,30.45c-34.5,2.74-58.49-33.74-41.35-64.22C13.22,101.73,23.77,94.43,38.42,91.28 M76.88,134.39
		c0-17.98-14.58-32.56-32.56-32.56c-17.98,0-32.56,14.58-32.56,32.56c0,17.98,14.58,32.56,32.56,32.56
		C62.3,166.95,76.88,152.37,76.88,134.39L76.88,134.39z"/>
	<path d="M144.31,91.37c31.9,6.55,46.09,37.67,30.21,66.84c-0.08,0.16-0.06,0.36,0.05,0.49l9.7,11.25c0.19,0.22,0.49,0.3,0.76,0.21
		c5.05-1.66,8.24-0.39,12.06,3.37c7.21,7.1,14.37,14.23,21.48,21.39c9.87,9.95-7.44,27.16-17.09,17.84
		c-6.23-6.02-13.73-13.52-22.5-22.5c-2.56-2.62-4.02-5.58-3.2-9.01c0.46-1.9,0.99-2.4-0.49-4.06c-2.65-2.98-5.29-6.09-7.93-9.32
		c-0.56-0.69-1.18-0.74-1.85-0.17c-27.13,22.79-68.09,3.79-70.45-30.41c-0.67-9.59,1.81-18.77,7.44-27.53
		C117.43,106.15,131.37,100.02,144.31,91.37 M170.66,134.39c0-17.98-14.58-32.56-32.56-32.56s-32.56,14.58-32.56,32.56
		c0,17.98,14.58,32.56,32.56,32.56S170.66,152.37,170.66,134.39L170.66,134.39z"/>
	<path d="M56.64,144.36c-11.06,11.68-30.06,1.78-26.71-14.22c1.29-6.18,5.38-10.04,12.28-11.59c0.82-0.18,1.63,0.34,1.81,1.16
		c0.56,2.72,2.13,9.17,5.13,10.17c2.29,0.78,7-0.28,9.53-0.69c0.64-0.1,1.25,0.29,1.43,0.91C61.66,135.53,60.51,140.28,56.64,144.36
		L56.64,144.36z"/>
	<path d="M153.24,129.67c0.69,1.45,1,2.92,0.93,4.41c-0.59,12.88-14,19.57-24.69,12.46c-10.86-7.23-7.74-24.13,4.91-27.95
		c1.31-0.4,2.69,0.37,3.04,1.7c0.61,2.27,1.58,4.81,2.91,7.64c1.78,3.79,8.83,1.51,12.12,1.29
		C152.82,129.2,153.08,129.35,153.24,129.67L153.24,129.67z"/>
	<path d="M111.83,184.42c0.39,0.34,0.51,0.91,0.27,1.37c-4.88,9.84-13.19,18.31-21.29,25.6c-0.25,0.22-0.5,0.22-0.75,0.01
		c-8.49-7.31-15.62-15.75-21.41-25.32c-0.29-0.48-0.2-1.1,0.22-1.47l20.89-18.2c0.41-0.36,1.02-0.36,1.43,0L111.83,184.42
		L111.83,184.42z"/>
</g>
</svg>
