<svg width="128" height="107" viewBox="0 0 128 107" fill="none" xmlns="http://www.w3.org/2000/svg">
<rect x="0.21521" y="0.338379" width="126.873" height="105.672" rx="18.701" fill="url(#paint0_linear)"/>
<g filter="url(#filter0_d)">
<path d="M92.7952 37.48C92.2864 36.8133 91.5846 36.287 90.6723 35.9185C90.7249 36.7607 90.6547 37.4449 90.4968 37.9713L79.654 73.6226C79.461 74.2542 79.04 74.7455 78.3908 75.114C77.7416 75.4824 77.0749 75.6754 76.3731 75.6754H43.0377C40.1428 75.6754 38.4234 74.8332 37.8444 73.1489C37.5988 72.4998 37.6163 71.9734 37.8795 71.5874C38.1427 71.219 38.5988 71.0435 39.248 71.0435H70.6184C72.8641 71.0435 74.4081 70.6224 75.2503 69.7978C76.11 68.9732 76.9697 67.1135 77.8294 64.2536L87.7247 31.5498C88.2511 29.7778 88.0405 28.1987 87.0756 26.8653C86.1281 25.5144 84.7421 24.8477 82.97 24.8477H55.4946C55.1788 24.8477 54.5648 24.9529 53.6524 25.181L53.6875 25.0757C53.0208 24.9354 52.4418 24.8652 51.9681 24.8827C51.4944 24.9003 51.0733 25.0407 50.6698 25.3038C50.2662 25.567 49.9504 25.8477 49.7223 26.146C49.4767 26.4442 49.2486 26.8302 49.0205 27.3039C48.7925 27.7777 48.5995 28.2163 48.4416 28.6023C48.2837 29.0058 48.1082 29.4269 47.8977 29.8655C47.6871 30.3041 47.4941 30.6726 47.3011 30.9708C47.1608 31.1638 46.9502 31.4095 46.6871 31.7253C46.4239 32.0411 46.2134 32.3218 46.0379 32.5499C45.8625 32.7955 45.7572 33.0061 45.7046 33.1991C45.6519 33.4096 45.687 33.7254 45.7747 34.1465C45.8625 34.5676 45.9151 34.8658 45.88 35.0588C45.7747 35.9712 45.4589 37.1291 44.8799 38.5503C44.3185 39.9539 43.8097 40.9715 43.3535 41.6031C43.2483 41.7259 42.9851 41.9891 42.564 42.4102C42.1254 42.8312 41.8622 43.1997 41.7745 43.5155C41.6692 43.6383 41.6692 43.9717 41.7569 44.5331C41.8447 45.0945 41.8798 45.4805 41.8447 45.6911C41.7569 46.5157 41.4411 47.5859 40.9499 48.9369C40.4411 50.2878 39.9323 51.3932 39.441 52.2529C39.3708 52.3932 39.1603 52.674 38.8269 53.0775C38.4936 53.481 38.283 53.8319 38.2129 54.0951C38.1602 54.2881 38.1778 54.6214 38.2304 55.1127C38.283 55.5864 38.283 55.9549 38.2129 56.2005C38.0199 57.1128 37.6514 58.2182 37.1251 59.4989C36.5987 60.7797 36.0548 61.8851 35.4934 62.7974C35.353 63.043 35.16 63.3237 34.8969 63.6396C34.6512 63.9729 34.4407 64.2536 34.3003 64.4817C34.16 64.7273 34.0547 64.973 34.0021 65.2361C33.9845 65.3765 34.0196 65.6221 34.1073 65.9379C34.1951 66.2713 34.2477 66.5169 34.2126 66.7099C34.1951 67.0433 34.1424 67.4994 34.0722 68.0433C34.0021 68.6048 33.967 68.9206 33.967 69.0259C33.4406 70.4645 33.4582 71.9909 34.0372 73.6051C34.7039 75.4824 35.9145 77.0614 37.6339 78.3598C39.3533 79.6406 41.1429 80.2897 43.0026 80.2897H76.3205C77.882 80.2897 79.3558 79.7634 80.7418 78.7107C82.1279 77.658 83.0402 76.3772 83.4964 74.8332L93.4268 42.1294C93.9707 40.41 93.7426 38.8485 92.7952 37.48ZM54.3718 37.5502L55.1262 35.2343C55.2315 34.9185 55.4245 34.6553 55.7227 34.4272C56.021 34.1991 56.3368 34.0763 56.6526 34.0763H78.6013C78.9347 34.0763 79.1803 34.1991 79.3207 34.4272C79.4611 34.6553 79.4961 34.9185 79.3909 35.2343L78.6364 37.5502C78.5312 37.866 78.3382 38.1292 78.0399 38.3573C77.7416 38.5854 77.4258 38.7082 77.1276 38.7082H55.1613C54.8279 38.7082 54.5823 38.5854 54.4419 38.3573C54.3016 38.1467 54.284 37.866 54.3718 37.5502ZM51.3716 46.7964L52.126 44.4805C52.2313 44.1647 52.4243 43.9015 52.7225 43.6734C53.0208 43.4453 53.3366 43.3225 53.6349 43.3225H75.5836C75.917 43.3225 76.1626 43.4453 76.303 43.6734C76.4433 43.9015 76.4784 44.1647 76.3731 44.4805L75.6187 46.7964C75.531 47.1122 75.3204 47.3754 75.0222 47.6035C74.7239 47.8315 74.4081 47.9544 74.1098 47.9544H52.1786C51.8453 47.9544 51.5997 47.8315 51.4593 47.6035C51.3014 47.3754 51.2838 47.1122 51.3716 46.7964Z" fill="#FCFCFE"/>
</g>
<defs>
<filter id="filter0_d" x="33.5869" y="24.8477" width="65.1297" height="60.4421" filterUnits="userSpaceOnUse" color-interpolation-filters="sRGB">
<feFlood flood-opacity="0" result="BackgroundImageFix"/>
<feColorMatrix in="SourceAlpha" type="matrix" values="0 0 0 0 0 0 0 0 0 0 0 0 0 0 0 0 0 0 127 0"/>
<feOffset dx="4" dy="4"/>
<feGaussianBlur stdDeviation="0.5"/>
<feColorMatrix type="matrix" values="0 0 0 0 0 0 0 0 0 0 0 0 0 0 0 0 0 0 0.31 0"/>
<feBlend mode="normal" in2="BackgroundImageFix" result="effect1_dropShadow"/>
<feBlend mode="normal" in="SourceGraphic" in2="effect1_dropShadow" result="shape"/>
</filter>
<linearGradient id="paint0_linear" x1="3.65434" y1="10.8437" x2="138.863" y2="84.3509" gradientUnits="userSpaceOnUse">
<stop stop-color="#FED156"/>
<stop offset="1" stop-color="#FADE92" stop-opacity="0.81"/>
</linearGradient>
</defs>
</svg>
