<svg width="128" height="106" viewBox="0 0 128 106" fill="none" xmlns="http://www.w3.org/2000/svg">
<rect x="0.60791" y="0.338379" width="126.873" height="105.672" rx="18.701" fill="url(#paint0_linear_1509_236)"/>
<g clip-path="url(#clip0_1509_236)" filter="url(#filter0_d_1509_236)">
<path d="M78.3792 79.1517H74.455V75.2275H54.8342V79.1517H50.91C48.762 79.1517 46.9858 80.9279 46.9858 83.0759V85.0586C46.9858 86.1326 47.8533 87.0413 48.9686 87.0413H80.3619C81.4359 87.0413 82.3447 86.1739 82.3447 85.0586V83.0759C82.3033 80.8866 80.5271 79.1517 78.3792 79.1517Z" fill="white"/>
<path d="M46.9443 32.4747V54.6153C48.514 54.2435 50.125 54.037 51.6946 54.037C55.5362 54.037 59.3364 55.1523 62.641 57.2589V35.9858C57.3537 31.7312 52.0664 30.905 46.9443 32.4747Z" fill="white"/>
<path d="M66.6067 35.9858V57.3002C71.2744 54.2848 76.9747 53.3348 82.3034 54.6566V32.4747C77.14 30.905 71.894 31.7725 66.6067 35.9858Z" fill="white"/>
<path d="M86.2275 57.3002C86.2275 57.9612 85.897 58.5395 85.3601 58.9112C84.8231 59.283 84.1208 59.3656 83.5425 59.1178C78.1313 56.9698 71.9766 57.8785 67.4328 61.5136C65.6979 62.918 65.4501 63.2071 64.6652 63.2071C63.8804 63.2071 63.6326 62.918 61.8977 61.5136C57.3539 57.8785 51.1991 56.9698 45.7879 59.1178C45.1683 59.3656 44.5074 59.283 43.9704 58.9112C43.4334 58.5395 43.103 57.9198 43.103 57.3002V31.1116C43.103 30.3268 43.5986 29.5832 44.3422 29.2941C50.7448 26.733 58.3453 27.4766 64.7065 32.516C70.9852 27.5179 78.5857 26.6917 85.0709 29.2941C85.8144 29.5832 86.3101 30.3268 86.3101 31.1116V57.3002H86.2275ZM92.0931 20H36.9069C33.6436 20 31 22.6436 31 25.9069V65.4377C31 68.701 33.6436 71.3446 36.9069 71.3446H92.1344C95.3977 71.3446 98.0413 68.701 98.0413 65.4377V25.9069C98 22.6436 95.3563 20 92.0931 20Z" fill="white"/>
</g>
<defs>
<filter id="filter0_d_1509_236" x="31" y="20" width="72" height="72" filterUnits="userSpaceOnUse" color-interpolation-filters="sRGB">
<feFlood flood-opacity="0" result="BackgroundImageFix"/>
<feColorMatrix in="SourceAlpha" type="matrix" values="0 0 0 0 0 0 0 0 0 0 0 0 0 0 0 0 0 0 127 0" result="hardAlpha"/>
<feOffset dx="4" dy="4"/>
<feGaussianBlur stdDeviation="0.5"/>
<feColorMatrix type="matrix" values="0 0 0 0 0 0 0 0 0 0 0 0 0 0 0 0 0 0 0.31 0"/>
<feBlend mode="normal" in2="BackgroundImageFix" result="effect1_dropShadow_1509_236"/>
<feBlend mode="normal" in="SourceGraphic" in2="effect1_dropShadow_1509_236" result="shape"/>
</filter>
<linearGradient id="paint0_linear_1509_236" x1="4.04704" y1="10.8437" x2="139.256" y2="84.3509" gradientUnits="userSpaceOnUse">
<stop stop-color="#5FDFE4"/>
<stop offset="1" stop-color="#5FDFE4" stop-opacity="0.81"/>
</linearGradient>
<clipPath id="clip0_1509_236">
<rect width="67" height="67" fill="white" transform="translate(31 20)"/>
</clipPath>
</defs>
</svg>
