<svg width="127" height="106" viewBox="0 0 127 106" fill="none" xmlns="http://www.w3.org/2000/svg">
<rect x="0.0726318" y="0.338379" width="126.873" height="105.642" rx="18.701" fill="url(#paint0_linear)"/>
<g filter="url(#filter0_d)">
<path d="M74.0162 66.5497H53.0013C51.0603 66.5497 49.5028 64.9921 49.5028 63.0512C49.5028 61.1102 51.0603 59.5527 53.0013 59.5527H73.9923C75.9332 59.5527 77.4908 61.1102 77.4908 63.0512C77.5147 64.9921 75.9332 66.5497 74.0162 66.5497ZM53.0013 38.5617H64.6709C66.6119 38.5617 68.1694 40.1192 68.1694 42.0602C68.1694 44.0011 66.6119 45.5587 64.6709 45.5587H53.0013C51.0603 45.5587 49.5028 44.0011 49.5028 42.0602C49.5028 40.1192 51.0843 38.5617 53.0013 38.5617ZM84.5117 45.5587C83.2897 45.5587 82.1874 45.1753 82.1874 42.3477V39.7119C81.8998 31.2052 74.8789 24.4958 66.3722 24.5437H50.0299C41.9067 24.6635 35.4129 31.3251 35.5087 39.4483C35.5087 39.5441 35.5087 39.64 35.5087 39.7358V65.3995C35.2452 73.5227 41.6191 80.3041 49.7424 80.5677C49.8382 80.5677 49.9341 80.5677 50.0299 80.5677H74.3757C84.1523 80.5677 91.5087 73.7384 91.5087 64.6806V52.5797C91.5087 47.3319 89.7355 45.5587 84.5117 45.5587Z" fill="#F6F8FF"/>
</g>
<defs>
<filter id="filter0_d" x="35.5009" y="24.5435" width="61.0079" height="61.0242" filterUnits="userSpaceOnUse" color-interpolation-filters="sRGB">
<feFlood flood-opacity="0" result="BackgroundImageFix"/>
<feColorMatrix in="SourceAlpha" type="matrix" values="0 0 0 0 0 0 0 0 0 0 0 0 0 0 0 0 0 0 127 0"/>
<feOffset dx="4" dy="4"/>
<feGaussianBlur stdDeviation="0.5"/>
<feColorMatrix type="matrix" values="0 0 0 0 0 0 0 0 0 0 0 0 0 0 0 0 0 0 0.31 0"/>
<feBlend mode="normal" in2="BackgroundImageFix" result="effect1_dropShadow"/>
<feBlend mode="normal" in="SourceGraphic" in2="effect1_dropShadow" result="shape"/>
</filter>
<linearGradient id="paint0_linear" x1="3.51176" y1="10.8408" x2="138.703" y2="84.3591" gradientUnits="userSpaceOnUse">
<stop stop-color="#6A6FEF"/>
<stop offset="1" stop-color="#6A6FEF" stop-opacity="0.81"/>
</linearGradient>
</defs>
</svg>
