<svg width="128" height="107" viewBox="0 0 128 107" fill="none" xmlns="http://www.w3.org/2000/svg">
<rect x="0.483337" y="0.594727" width="126.873" height="105.642" rx="18.701" fill="url(#paint0_linear)"/>
<g filter="url(#filter0_d)">
<path d="M81.1822 80.7646H74.7851L73.4689 76.8467H49.8393L48.5231 80.7646H42.1259C41.0546 80.7646 40.167 81.6522 40.167 82.7235C40.167 83.7948 41.0546 84.6824 42.1259 84.6824H81.1822C82.2535 84.6824 83.1412 83.7948 83.1412 82.7235C83.1412 81.6216 82.2841 80.7646 81.1822 80.7646Z" fill="white"/>
<path d="M81.1822 33.8726C80.1109 33.8726 79.2233 34.7602 79.2233 35.8315C79.2233 36.9028 80.1109 37.7904 81.1822 37.7904C82.2535 37.7904 83.1411 36.9028 83.1411 35.8315C83.1411 34.7602 82.2841 33.8726 81.1822 33.8726Z" fill="white"/>
<path d="M89.018 22.1494H34.1678C30.9539 22.1494 28.3216 24.7817 28.3216 27.9956V61.2057H40.167V55.3595C40.167 54.2882 41.0547 53.4006 42.126 53.4006H45.1562C45.3705 52.819 45.5847 52.268 45.8602 51.7171L43.7176 49.5745C42.9524 48.8093 42.9524 47.585 43.7176 46.8198L49.2271 41.3102C49.9923 40.545 51.2167 40.545 51.9819 41.3102L54.1244 43.4528C54.6754 43.1774 55.2263 42.9631 55.8079 42.7488V39.7186C55.8079 38.6473 56.6955 37.7597 57.7668 37.7597H65.572C66.6433 37.7597 67.5309 38.6473 67.5309 39.7186V42.7488C68.1125 42.9631 68.6634 43.1774 69.2144 43.4528L71.357 41.3102C72.1222 40.545 73.3465 40.545 74.1117 41.3102L79.6212 46.8198C80.3864 47.585 80.3864 48.8093 79.6212 49.5745L77.4786 51.7171C77.7541 52.268 77.9684 52.819 78.1826 53.4006H81.2128C82.2841 53.4006 83.1718 54.2882 83.1718 55.3595V61.2057H95.0172V27.9956C94.9866 24.7817 92.2319 22.1494 89.018 22.1494ZM81.1822 41.6775C77.9378 41.6775 75.336 39.0452 75.336 35.8314C75.336 32.5869 77.9684 29.9852 81.1822 29.9852C84.4267 29.9852 87.0284 32.6175 87.0284 35.8314C87.059 39.0452 84.4267 41.6775 81.1822 41.6775Z" fill="white"/>
<path d="M55.8079 59.2771C55.8079 59.9505 55.961 60.5933 56.1752 61.2361H67.133C67.3473 60.5933 67.5003 59.9505 67.5003 59.2771C67.5003 56.0326 64.868 53.4309 61.6541 53.4309C58.4402 53.4003 55.8079 56.0326 55.8079 59.2771Z" fill="white"/>
<path d="M48.4617 55.8494C48.2475 56.7064 47.4517 57.3186 46.564 57.3186H44.0541V61.2365H52.1347C52.0123 60.5937 51.8899 59.9509 51.8899 59.2775C51.8899 53.8905 56.2669 49.5135 61.6539 49.5135C67.041 49.5135 71.418 53.8905 71.418 59.2775C71.418 59.9509 71.2956 60.5937 71.1731 61.2365H79.2537V57.3186H76.7439C75.8562 57.3186 75.0604 56.7064 74.8461 55.8494C74.5401 54.6251 74.0503 53.462 73.4075 52.3601C72.9484 51.5948 73.0709 50.6154 73.7136 49.9726L75.4889 48.1973L72.7342 45.4426L70.9589 47.2178C70.3161 47.8606 69.3366 47.9831 68.5714 47.5239C67.4695 46.8812 66.3064 46.3914 65.0821 46.0853C64.225 45.8711 63.6129 45.0753 63.6129 44.1876V41.6777H59.695V44.1876C59.695 45.0753 59.0828 45.8711 58.2258 46.0853C57.0015 46.3914 55.8383 46.8812 54.7364 47.5239C53.9712 47.9831 52.9918 47.8606 52.349 47.2178L50.5737 45.4426L47.819 48.1973L49.5942 49.9726C50.237 50.6154 50.3594 51.5642 49.9003 52.3601C49.2882 53.462 48.7984 54.6251 48.4617 55.8494Z" fill="white"/>
<path d="M28.3215 67.0825C28.3215 70.327 30.9539 72.9287 34.1677 72.9287H88.9873C92.2318 72.9287 94.9866 70.2964 94.9866 67.0825V65.1235H28.3215V67.0825Z" fill="white"/>
</g>
<defs>
<filter id="filter0_d" x="28.3215" y="22.1494" width="71.6957" height="67.533" filterUnits="userSpaceOnUse" color-interpolation-filters="sRGB">
<feFlood flood-opacity="0" result="BackgroundImageFix"/>
<feColorMatrix in="SourceAlpha" type="matrix" values="0 0 0 0 0 0 0 0 0 0 0 0 0 0 0 0 0 0 127 0"/>
<feOffset dx="4" dy="4"/>
<feGaussianBlur stdDeviation="0.5"/>
<feColorMatrix type="matrix" values="0 0 0 0 0 0 0 0 0 0 0 0 0 0 0 0 0 0 0.31 0"/>
<feBlend mode="normal" in2="BackgroundImageFix" result="effect1_dropShadow"/>
<feBlend mode="normal" in="SourceGraphic" in2="effect1_dropShadow" result="shape"/>
</filter>
<linearGradient id="paint0_linear" x1="5.61216" y1="5.90527" x2="131.038" y2="85.1168" gradientUnits="userSpaceOnUse">
<stop stop-color="#217CBE"/>
<stop offset="1" stop-color="#2D95E0" stop-opacity="0.75"/>
</linearGradient>
</defs>
</svg>
