<svg width="128" height="107" viewBox="0 0 128 107" fill="none" xmlns="http://www.w3.org/2000/svg">
<rect x="0.249023" y="0.594727" width="126.805" height="105.642" rx="17.766" fill="url(#paint0_linear)"/>
<g clip-path="url(#clip0)" filter="url(#filter0_d)">
<path d="M44.6756 42.9699C41.6131 42.9699 39.1321 45.4645 39.1321 48.5436V69.5523C39.1321 72.6315 41.6131 75.126 44.6756 75.126H55.22C58.2826 75.126 60.7636 72.6315 60.7636 69.5523V48.5436C60.7636 45.4645 58.2826 42.9699 55.22 42.9699H44.6756ZM55.22 69.5523H44.6756V48.5436H55.22V69.5523ZM87.9 59.1454C87.9 60.6655 86.6594 61.9128 85.1475 61.9128H69.0983C67.5865 61.9128 66.3459 60.6655 66.3459 59.1454C66.3459 57.6253 67.5865 56.378 69.0983 56.378H85.1475C86.6594 56.3391 87.9 57.5863 87.9 59.1454ZM87.9 69.7082C87.9 71.2283 86.6594 72.4756 85.1475 72.4756H69.0983C67.5865 72.4756 66.3459 71.2283 66.3459 69.7082C66.3459 68.1881 67.5865 66.9408 69.0983 66.9408H85.1475C86.6594 66.9408 87.9 68.1881 87.9 69.7082ZM87.9 48.5436C87.9 50.0637 86.6594 51.311 85.1475 51.311H69.0983C67.5865 51.311 66.3459 50.0637 66.3459 48.5436C66.3459 47.0235 67.5865 45.7763 69.0983 45.7763H85.1475C86.6594 45.7763 87.9 47.0235 87.9 48.5436ZM90.8074 20.5581H36.5347C31.9215 20.5581 28.2 24.2999 28.2 28.8992V75.126C28.2 81.2844 33.1621 86.2735 39.2871 86.2735H88.0163C94.1413 86.2735 99.1034 81.2844 99.1034 75.126C99.1034 73.6059 97.8629 72.3586 96.351 72.3586C94.8391 72.3586 93.5986 73.6059 93.5986 75.126C93.5986 78.2052 91.1175 80.6997 88.055 80.6997H39.2871C36.2246 80.6997 33.7436 78.2052 33.7436 75.126V37.3962H93.5598V61.2112C93.5598 62.7313 94.8003 63.9786 96.3122 63.9786C97.8241 63.9786 99.0646 62.7313 99.0646 61.2112V28.8992C99.1034 24.2999 95.3818 20.5581 90.8074 20.5581ZM79.5652 26.1318C81.0771 26.1318 82.3176 27.3791 82.3176 28.8992C82.3176 30.4193 81.0771 31.6666 79.5652 31.6666C78.0533 31.6666 76.8128 30.4193 76.8128 28.8992C76.8128 27.3791 78.0533 26.1318 79.5652 26.1318ZM93.4435 28.8992C93.4435 30.4193 92.203 31.6666 90.6911 31.6666C89.1792 31.6666 87.9387 30.4193 87.9387 28.8992C87.9387 27.3791 89.1792 26.1318 90.6911 26.1318C92.203 26.1318 93.4435 27.3791 93.4435 28.8992ZM33.7436 28.8992C33.7436 27.3791 34.9841 26.1318 36.496 26.1318H71.7344C71.4243 26.9893 71.2692 27.9248 71.2692 28.8992C71.2692 29.9126 71.4631 30.926 71.812 31.8225H33.7436V28.8992Z" fill="#FFFDFD"/>
</g>
<defs>
<filter id="filter0_d" x="28.2" y="20.5581" width="75.9034" height="70.7153" filterUnits="userSpaceOnUse" color-interpolation-filters="sRGB">
<feFlood flood-opacity="0" result="BackgroundImageFix"/>
<feColorMatrix in="SourceAlpha" type="matrix" values="0 0 0 0 0 0 0 0 0 0 0 0 0 0 0 0 0 0 127 0"/>
<feOffset dx="4" dy="4"/>
<feGaussianBlur stdDeviation="0.5"/>
<feColorMatrix type="matrix" values="0 0 0 0 0 0 0 0 0 0 0 0 0 0 0 0 0 0 0.31 0"/>
<feBlend mode="normal" in2="BackgroundImageFix" result="effect1_dropShadow"/>
<feBlend mode="normal" in="SourceGraphic" in2="effect1_dropShadow" result="shape"/>
</filter>
<linearGradient id="paint0_linear" x1="5.37511" y1="5.90527" x2="130.772" y2="85.0562" gradientUnits="userSpaceOnUse">
<stop stop-color="#FF406E"/>
<stop offset="1" stop-color="#FF406E" stop-opacity="0.65"/>
</linearGradient>
<clipPath id="clip0">
<rect width="70.9034" height="65.7153" fill="white" transform="translate(28.2 20.5581)"/>
</clipPath>
</defs>
</svg>
