<svg width="129" height="107" viewBox="0 0 129 107" fill="none" xmlns="http://www.w3.org/2000/svg">
<rect x="0.610291" y="0.822266" width="128.083" height="105.642" rx="17.766" fill="url(#paint0_linear)"/>
<g filter="url(#filter0_d)">
<path d="M34.0195 52.3989V71.7936C34.0195 75.358 36.9617 78.2515 40.586 78.2515H87.8947C91.519 78.2515 94.4611 75.358 94.4611 71.7936V52.3989H34.0195Z" fill="white"/>
<path d="M62.5667 22.1431L52.7383 24.4285L60.989 36.3588L71.6489 33.9686L62.5667 22.1431Z" fill="white"/>
<path d="M50.0093 25.0786L39.4133 27.5527L47.5575 39.3573L58.2174 36.967L50.0093 25.0786Z" fill="white"/>
<path d="M94.4185 27.5107L92.1799 19.1657C91.6682 17.1319 89.5576 15.8529 87.4682 16.3352L78.6418 18.39L87.0205 30.53L93.4378 29.0832C93.7789 28.9994 94.0774 28.7897 94.2692 28.4962C94.4611 28.2026 94.5038 27.8462 94.4185 27.5107Z" fill="white"/>
<path d="M75.9129 19.019L65.3596 21.4932L74.4418 33.3606L84.2703 31.159L75.9129 19.019Z" fill="white"/>
<path d="M47.2593 39.4829L43.0593 49.8197H53.3781L57.5781 39.4829H47.2593V39.4829Z" fill="white"/>
<path d="M60.3921 39.4829L56.1921 49.7987H66.5109L70.7109 39.4619H60.3921V39.4829Z" fill="white"/>
<path d="M93.1394 39.4829H86.6795L82.4795 49.8197H94.4612V40.7619C94.4612 40.049 93.8856 39.4829 93.1394 39.4829Z" fill="white"/>
<path d="M73.5464 39.4829L69.3464 49.8197H79.6439L83.8439 39.4829H73.5464V39.4829Z" fill="white"/>
<path d="M36.6844 28.1816L34.5524 28.6849C33.5077 28.9155 32.6336 29.5445 32.058 30.4251C31.4824 31.3267 31.3118 32.396 31.589 33.4025L34.0194 42.8796V49.8198H40.2235L44.1676 40.1329L44.8072 39.9862L36.6844 28.1816Z" fill="white"/>
</g>
<defs>
<filter id="filter0_d" x="31.459" y="16.2334" width="68.0022" height="67.0181" filterUnits="userSpaceOnUse" color-interpolation-filters="sRGB">
<feFlood flood-opacity="0" result="BackgroundImageFix"/>
<feColorMatrix in="SourceAlpha" type="matrix" values="0 0 0 0 0 0 0 0 0 0 0 0 0 0 0 0 0 0 127 0"/>
<feOffset dx="4" dy="4"/>
<feGaussianBlur stdDeviation="0.5"/>
<feColorMatrix type="matrix" values="0 0 0 0 0 0 0 0 0 0 0 0 0 0 0 0 0 0 0.31 0"/>
<feBlend mode="normal" in2="BackgroundImageFix" result="effect1_dropShadow"/>
<feBlend mode="normal" in="SourceGraphic" in2="effect1_dropShadow" result="shape"/>
</filter>
<linearGradient id="paint0_linear" x1="5.78801" y1="6.13282" x2="131.721" y2="86.4231" gradientUnits="userSpaceOnUse">
<stop stop-color="#32DE62"/>
<stop offset="1" stop-color="#62F58B" stop-opacity="0.77"/>
</linearGradient>
</defs>
</svg>
