<svg width="25" height="24" viewBox="0 0 25 24" fill="none" xmlns="http://www.w3.org/2000/svg">
<g clip-path="url(#clip0_1_1732)">
<path d="M12.3422 0.122925C5.83178 0.122925 0.53418 5.41905 0.53418 11.9302C0.53418 18.4414 5.83178 23.7375 12.3422 23.7375C18.8526 23.7375 24.1502 18.4414 24.1502 11.9302C24.1502 5.41905 18.8526 0.122925 12.3422 0.122925ZM12.3422 22.951C6.26551 22.951 1.32212 18.0069 1.32212 11.9302C1.32212 5.85352 6.26551 0.90939 12.3422 0.90939C18.4189 0.90939 23.3623 5.85352 23.3623 11.9302C23.3623 18.0069 18.4189 22.951 12.3422 22.951Z" fill="black"/>
<path d="M14.9207 5.30357H12.956C10.4537 5.27853 10.1341 6.82716 10.1341 8.50318V9.72191H9.02953C8.9796 9.71524 8.92881 9.72017 8.8811 9.73632C8.83339 9.75246 8.79004 9.77939 8.75443 9.815C8.71881 9.85062 8.69188 9.89397 8.67574 9.94168C8.65959 9.98939 8.65466 10.0402 8.66133 10.0901V12.2993C8.65466 12.3492 8.65959 12.4 8.67574 12.4477C8.69188 12.4954 8.71881 12.5388 8.75443 12.5744C8.79004 12.61 8.83339 12.6369 8.8811 12.6531C8.92881 12.6692 8.9796 12.6741 9.02953 12.6675H10.1341V18.1904C10.128 18.2404 10.1334 18.2912 10.1498 18.3388C10.1663 18.3864 10.1935 18.4296 10.2292 18.4652C10.2649 18.5007 10.3083 18.5276 10.356 18.5438C10.4038 18.56 10.4545 18.565 10.5045 18.5586H12.7542C12.9714 18.5836 13.1474 18.4076 13.0782 18.1904L13.0797 12.6675H14.9207C14.9706 12.6741 15.0214 12.6692 15.0691 12.6531C15.1168 12.6369 15.1601 12.61 15.1958 12.5744C15.2314 12.5388 15.2583 12.4954 15.2744 12.4477C15.2906 12.4 15.2955 12.3492 15.2888 12.2993V10.0901C15.2955 10.0402 15.2906 9.98939 15.2744 9.94168C15.2583 9.89397 15.2314 9.85062 15.1958 9.815C15.1601 9.77939 15.1168 9.75246 15.0691 9.73632C15.0214 9.72017 14.9706 9.71524 14.9207 9.72191H13.0775L13.0797 8.61732C13.1511 8.14677 13.1511 8.22335 13.5878 8.24913H14.9052C15.0075 8.2263 15.1165 8.23882 15.1931 8.16444C15.2697 8.09007 15.3139 7.98845 15.2881 7.88093V5.67176C15.2949 5.62188 15.2901 5.57109 15.274 5.52338C15.258 5.47566 15.2311 5.43229 15.1956 5.39665C15.16 5.36102 15.1167 5.33408 15.069 5.31793C15.0213 5.30178 14.9706 5.29687 14.9207 5.30357ZM14.5267 7.4715L13.6033 7.43615C12.4596 7.43615 12.3639 8.05693 12.3639 8.69244L12.361 10.0886C12.3609 10.1403 12.371 10.1915 12.3907 10.2393C12.4104 10.2871 12.4394 10.3306 12.4759 10.3672C12.5124 10.4038 12.5558 10.4328 12.6035 10.4526C12.6513 10.4724 12.7025 10.4826 12.7542 10.4826H14.5525V11.9053H12.7557C12.6513 11.9053 12.5512 11.9467 12.4773 12.0204C12.4035 12.0942 12.3619 12.1942 12.3617 12.2985L12.361 17.8222H10.8705V12.2993C10.8705 12.082 10.7225 11.906 10.5045 11.906H9.39772V10.4833H10.5045C10.5562 10.4834 10.6074 10.4733 10.6551 10.4536C10.7029 10.4339 10.7463 10.405 10.7829 10.3685C10.8565 10.2941 10.8698 10.1939 10.8698 10.0894V8.50245C10.8698 6.85146 11.2034 6.06499 12.9552 6.06499H14.5259V7.4715H14.5267Z" fill="black"/>
</g>
<defs>
<clipPath id="clip0_1_1732">
<rect width="23.5645" height="23.5645" fill="white" transform="translate(0.561035 0.148926)"/>
</clipPath>
</defs>
</svg>
