<svg width="13" height="14" viewBox="0 0 13 14" fill="none" xmlns="http://www.w3.org/2000/svg">
<path d="M9.19827 1.03894H3.7637C2.01012 1.03894 0.588867 2.46045 0.588867 4.21377V9.64834C0.588867 11.4019 2.01037 12.8232 3.76395 12.8232H9.19802C10.9516 12.8232 12.3731 11.4017 12.3731 9.64809V4.21377C12.3731 2.46019 10.9516 1.03894 9.19802 1.03894H9.19827Z" fill="white"/>
<path d="M9.19827 1.03894H3.7637C2.01012 1.03894 0.588867 2.46045 0.588867 4.21377V9.64834C0.588867 11.4019 2.01037 12.8232 3.76395 12.8232H9.19802C10.9516 12.8232 12.3731 11.4017 12.3731 9.64809V4.21377C12.3731 2.46019 10.9516 1.03894 9.19802 1.03894H9.19827Z" stroke="black" stroke-width="0.589113" stroke-miterlimit="10"/>
<path d="M6.481 9.77559C8.05198 9.77559 9.32552 8.50206 9.32552 6.93107C9.32552 5.36008 8.05198 4.08655 6.481 4.08655C4.91001 4.08655 3.63647 5.36008 3.63647 6.93107C3.63647 8.50206 4.91001 9.77559 6.481 9.77559Z" stroke="black" stroke-width="0.589113" stroke-miterlimit="10"/>
<path d="M9.93491 4.08649C10.2715 4.08649 10.5444 3.81362 10.5444 3.47702C10.5444 3.14042 10.2715 2.86755 9.93491 2.86755C9.59831 2.86755 9.32544 3.14042 9.32544 3.47702C9.32544 3.81362 9.59831 4.08649 9.93491 4.08649Z" fill="black"/>
</svg>
