<svg width="25" height="24" viewBox="0 0 25 24" fill="none" xmlns="http://www.w3.org/2000/svg">
<path d="M15.207 8.95032C14.7077 8.95032 14.338 9.07624 14.0486 9.2353C14.0022 9.07035 13.8498 8.94958 13.6701 8.98566H11.4727C11.2555 8.94958 11.0795 9.12558 11.1465 9.35386V17.4542C11.0795 17.6603 11.2555 17.8371 11.4727 17.8224H13.6701C13.8874 17.8371 14.0634 17.6603 14.0634 17.4431L14.0626 12.5476C14.0619 12.5454 14.0538 12.3112 14.2018 12.1499C14.3204 12.0218 14.5243 11.9563 14.8064 11.9563C15.2762 11.9563 15.4853 12.1485 15.5634 12.5785V17.4431C15.4861 17.6603 15.6621 17.8371 15.8793 17.8224H18.1953C18.4125 17.8371 18.5885 17.6603 18.5104 17.4431V12.415C18.5877 9.85829 16.7667 8.95032 15.207 8.95032ZM17.8013 17.086H16.2725V12.5785C16.2725 11.7088 15.7107 11.1698 14.8071 11.1698C14.2961 11.1698 13.8984 11.32 13.6245 11.6161C13.2438 12.0284 13.2732 12.5513 13.355 12.6676V17.086H11.866V9.73678H13.2769V9.98421C13.2763 10.0579 13.2966 10.1303 13.3353 10.193C13.374 10.2557 13.4296 10.3063 13.4957 10.3388C13.5619 10.3713 13.6359 10.3846 13.7092 10.3769C13.7825 10.3693 13.8522 10.3412 13.9102 10.2957L14.0133 10.2162C14.3115 9.98126 14.6201 9.73752 15.2077 9.73752C15.816 9.73752 17.802 9.93119 17.802 12.4158V17.086H17.8013Z" fill="black"/>
<path d="M8.93678 5.27869C8.11055 5.27869 7.43896 5.95027 7.43896 6.77651C7.43896 7.60274 8.11055 8.27432 8.93678 8.27432C9.76301 8.27432 10.4346 7.60274 10.4346 6.77651C10.4346 5.95027 9.76301 5.27869 8.93678 5.27869ZM8.93678 7.48786C8.54502 7.48786 8.22543 7.16827 8.22543 6.77651C8.22543 6.38475 8.54502 6.06515 8.93678 6.06515C9.32854 6.06515 9.64814 6.38475 9.64814 6.77651C9.64814 7.16827 9.32854 7.48786 8.93678 7.48786Z" fill="black"/>
<path d="M9.98821 8.94971H7.8026C7.58536 8.94971 7.40936 9.1257 7.46386 9.35399V17.4543C7.40936 17.6605 7.58536 17.8372 7.8026 17.8225H9.98821C10.2054 17.8372 10.3814 17.6605 10.3814 17.4432V9.34294C10.3814 9.23865 10.34 9.13863 10.2663 9.06488C10.1925 8.99114 10.0925 8.94971 9.98821 8.94971ZM9.67303 17.0861H8.19583V9.73691H9.67303V17.0861Z" fill="black"/>
<path d="M12.6186 0.123779C6.1074 0.123779 0.811279 5.4199 0.811279 11.9311C0.811279 18.4422 6.1074 23.7384 12.6186 23.7384C19.1297 23.7384 24.4259 18.4422 24.4259 11.9311C24.4259 5.4199 19.1297 0.123779 12.6186 0.123779ZM12.6186 22.9519C6.54187 22.9519 1.59774 18.0078 1.59774 11.9311C1.59774 5.85437 6.54187 0.910245 12.6186 0.910245C18.6953 0.910245 23.6394 5.85437 23.6394 11.9311C23.6394 18.0078 18.6953 22.9519 12.6186 22.9519Z" fill="black"/>
</svg>
