<svg width="127" height="107" viewBox="0 0 127 107" fill="none" xmlns="http://www.w3.org/2000/svg">
<rect x="126.945" y="106.465" width="126.873" height="105.642" rx="19.6361" transform="rotate(-180 126.945 106.465)" fill="url(#paint0_linear)"/>
<g filter="url(#filter0_d)">
<path d="M38.7186 86.8059C34.7533 86.8059 31.5239 83.5764 31.5239 79.6112V32.2733C31.5239 28.3081 34.7533 25.0786 38.7186 25.0786H92.1883C96.1535 25.0786 99.383 28.3081 99.383 32.2733V79.5703C99.383 81.0828 98.8924 82.5953 97.9522 83.8217C97.8705 83.9443 97.7887 84.067 97.6661 84.1896C96.3171 85.8248 94.314 86.765 92.1883 86.765H38.7186V86.8059ZM91.0437 80.6332L80.8648 63.0961L74.5694 73.7246L78.5756 80.6332H91.0437ZM37.6966 79.6112C37.6966 80.1835 38.1463 80.6332 38.7186 80.6332H71.4218L54.1299 50.7097L37.6966 78.303V79.6112V79.6112ZM80.9057 53.8983C82.0094 53.8983 83.0314 54.5115 83.5628 55.4517L93.2102 72.1303V32.2733C93.2102 31.701 92.7606 31.2513 92.1883 31.2513H38.7186C38.1463 31.2513 37.6966 31.701 37.6966 32.2733V66.2437L51.5137 43.0654C52.086 42.1251 53.0671 41.5528 54.1708 41.5528C55.2746 41.5528 56.2965 42.166 56.828 43.1062L71.013 67.5928L78.2485 55.4108C78.78 54.4706 79.8019 53.8983 80.9057 53.8983Z" fill="white"/>
<path d="M97.339 32.2733C97.339 29.4527 95.0497 27.1226 92.1882 27.1226H38.7185C35.8979 27.1226 33.5677 29.4527 33.5677 32.2733V79.5703C33.5677 82.3909 35.857 84.721 38.7185 84.721H92.1882C93.7416 84.721 95.1724 84.0261 96.1535 82.7997C96.1944 82.7589 96.2761 82.6771 96.317 82.6362C96.9711 81.7369 97.339 80.674 97.339 79.5703V32.2733ZM38.7185 29.2074H92.1882C93.9051 29.2074 95.2541 30.5973 95.2541 32.2733V79.5703C95.2541 79.6112 95.2541 79.6929 95.2541 79.7338L81.7641 56.4328C81.6006 56.1058 81.2326 55.9014 80.8647 55.9014C80.4968 55.9014 80.1698 56.1058 79.9654 56.3919L70.9311 71.5989L54.9883 44.0873C54.8248 43.7603 54.4569 43.5559 54.089 43.5559C53.7211 43.5559 53.3941 43.7603 53.1897 44.0465L35.5708 73.6837V32.2733C35.6526 30.5973 37.0425 29.2074 38.7185 29.2074ZM35.6526 79.6112V77.7716L54.1708 46.6627L75.019 82.6771H38.7185C37.0425 82.6771 35.6526 81.2872 35.6526 79.6112ZM77.39 82.6771L72.1575 73.6837L80.9056 59.0082L94.1913 81.9413C93.6599 82.3909 92.9649 82.6771 92.2291 82.6771H77.39Z" fill="white"/>
<path d="M80.9056 53.8986C75.7957 53.8986 71.6669 49.7289 71.6669 44.6599C71.6669 39.55 75.8366 35.3804 80.9465 35.3804C86.0563 35.3804 90.226 39.55 90.226 44.6599C90.226 49.7698 86.0155 53.8986 80.9056 53.8986ZM80.9056 41.5531C79.1887 41.5531 77.8397 42.943 77.8397 44.619C77.8397 46.3359 79.2295 47.6849 80.9056 47.6849C82.6225 47.6849 83.9715 46.2951 83.9715 44.619C83.9715 42.943 82.5816 41.5531 80.9056 41.5531Z" fill="white"/>
<path d="M80.9056 51.8137C84.8708 51.8137 88.1003 48.5843 88.1003 44.619C88.1003 40.6538 84.8708 37.4243 80.9056 37.4243C76.9403 37.4243 73.7109 40.6538 73.7109 44.619C73.7109 48.5843 76.9403 51.8137 80.9056 51.8137ZM80.9056 39.4683C83.7262 39.4683 86.0563 41.7575 86.0563 44.619C86.0563 47.4397 83.7671 49.7698 80.9056 49.7698C78.0849 49.7698 75.7548 47.4805 75.7548 44.619C75.7548 41.7984 78.0441 39.4683 80.9056 39.4683Z" fill="white"/>
</g>
<defs>
<filter id="filter0_d" x="31.5239" y="25.0786" width="72.8591" height="66.7273" filterUnits="userSpaceOnUse" color-interpolation-filters="sRGB">
<feFlood flood-opacity="0" result="BackgroundImageFix"/>
<feColorMatrix in="SourceAlpha" type="matrix" values="0 0 0 0 0 0 0 0 0 0 0 0 0 0 0 0 0 0 127 0"/>
<feOffset dx="4" dy="4"/>
<feGaussianBlur stdDeviation="0.5"/>
<feColorMatrix type="matrix" values="0 0 0 0 0 0 0 0 0 0 0 0 0 0 0 0 0 0 0.31 0"/>
<feBlend mode="normal" in2="BackgroundImageFix" result="effect1_dropShadow"/>
<feBlend mode="normal" in="SourceGraphic" in2="effect1_dropShadow" result="shape"/>
</filter>
<linearGradient id="paint0_linear" x1="132.074" y1="111.775" x2="257.499" y2="190.986" gradientUnits="userSpaceOnUse">
<stop stop-color="#FFCC40"/>
<stop offset="1" stop-color="#FFCC40" stop-opacity="0.51"/>
</linearGradient>
</defs>
</svg>
