<svg width="111" height="111" viewBox="0 0 111 111" fill="none" xmlns="http://www.w3.org/2000/svg">
<path d="M75.8118 0.696533H35.8118C16.4818 0.696533 0.811768 16.3666 0.811768 35.6965V75.6965C0.811768 95.0265 16.4818 110.697 35.8118 110.697H75.8118C95.1417 110.697 110.812 95.0265 110.812 75.6965V35.6965C110.812 16.3666 95.1417 0.696533 75.8118 0.696533Z" fill="url(#paint0_linear_1518_241)"/>
<g clip-path="url(#clip0_1518_241)" filter="url(#filter0_d_1518_241)">
<path d="M70.3792 81.1517H66.455V77.2275H46.8342V81.1517H42.91C40.762 81.1517 38.9858 82.9279 38.9858 85.0758V87.0586C38.9858 88.1325 39.8533 89.0413 40.9686 89.0413H72.3619C73.4359 89.0413 74.3447 88.1738 74.3447 87.0586V85.0758C74.3033 82.8866 72.5271 81.1517 70.3792 81.1517Z" fill="white"/>
<path d="M38.9445 34.4747V56.6153C40.5141 56.2435 42.1251 56.037 43.6948 56.037C47.5363 56.037 51.3366 57.1523 54.6411 59.2589V37.9858C49.3538 33.7312 44.0665 32.905 38.9445 34.4747Z" fill="white"/>
<path d="M58.6067 37.9858V59.3003C63.2744 56.2848 68.9747 55.3348 74.3034 56.6566V34.4747C69.14 32.9051 63.894 33.7725 58.6067 37.9858Z" fill="white"/>
<path d="M78.2275 59.3002C78.2275 59.9612 77.897 60.5395 77.3601 60.9112C76.8231 61.283 76.1208 61.3656 75.5425 61.1178C70.1313 58.9698 63.9766 59.8785 59.4328 63.5136C57.6979 64.918 57.4501 65.2071 56.6652 65.2071C55.8804 65.2071 55.6326 64.918 53.8977 63.5136C49.3539 59.8785 43.1991 58.9698 37.7879 61.1178C37.1683 61.3656 36.5074 61.283 35.9704 60.9112C35.4334 60.5395 35.103 59.9198 35.103 59.3002V33.1116C35.103 32.3268 35.5986 31.5832 36.3422 31.2941C42.7448 28.733 50.3453 29.4766 56.7065 34.516C62.9852 29.5179 70.5857 28.6917 77.0709 31.2941C77.8144 31.5832 78.3101 32.3268 78.3101 33.1116V59.3002H78.2275ZM84.0931 22H28.9069C25.6436 22 23 24.6436 23 27.9069V67.4377C23 70.701 25.6436 73.3446 28.9069 73.3446H84.1344C87.3977 73.3446 90.0413 70.701 90.0413 67.4377V27.9069C90 24.6436 87.3563 22 84.0931 22Z" fill="white"/>
</g>
<defs>
<filter id="filter0_d_1518_241" x="23" y="22" width="72" height="72" filterUnits="userSpaceOnUse" color-interpolation-filters="sRGB">
<feFlood flood-opacity="0" result="BackgroundImageFix"/>
<feColorMatrix in="SourceAlpha" type="matrix" values="0 0 0 0 0 0 0 0 0 0 0 0 0 0 0 0 0 0 127 0" result="hardAlpha"/>
<feOffset dx="4" dy="4"/>
<feGaussianBlur stdDeviation="0.5"/>
<feColorMatrix type="matrix" values="0 0 0 0 0 0 0 0 0 0 0 0 0 0 0 0 0 0 0.31 0"/>
<feBlend mode="normal" in2="BackgroundImageFix" result="effect1_dropShadow_1518_241"/>
<feBlend mode="normal" in="SourceGraphic" in2="effect1_dropShadow_1518_241" result="shape"/>
</filter>
<linearGradient id="paint0_linear_1518_241" x1="95.3118" y1="101.697" x2="19.3118" y2="8.19654" gradientUnits="userSpaceOnUse">
<stop stop-color="#25D9D9"/>
<stop offset="1" stop-color="#25D9D9" stop-opacity="0.5"/>
</linearGradient>
<clipPath id="clip0_1518_241">
<rect width="67" height="67" fill="white" transform="translate(23 22)"/>
</clipPath>
</defs>
</svg>
