<svg width="111" height="111" viewBox="0 0 111 111" fill="none" xmlns="http://www.w3.org/2000/svg">
<path d="M75.8118 0.696533H35.8118C16.4818 0.696533 0.811768 16.3666 0.811768 35.6965V75.6965C0.811768 95.0265 16.4818 110.697 35.8118 110.697H75.8118C95.1417 110.697 110.812 95.0265 110.812 75.6965V35.6965C110.812 16.3666 95.1417 0.696533 75.8118 0.696533Z" fill="url(#paint0_linear_1518_240)"/>
<g filter="url(#filter0_d_1518_240)">
<path d="M82.1814 37.2948C81.7211 36.6915 81.0861 36.2153 80.2606 35.8819C80.3082 36.6439 80.2447 37.263 80.1018 37.7393L70.2911 69.9973C70.1164 70.5688 69.7354 71.0133 69.1481 71.3467C68.5607 71.68 67.9574 71.8547 67.3224 71.8547H37.1599C34.5405 71.8547 32.9848 71.0927 32.4609 69.5687C32.2387 68.9813 32.2545 68.505 32.4927 68.1558C32.7308 67.8224 33.1435 67.6637 33.7309 67.6637H62.1154C64.1474 67.6637 65.5444 67.2827 66.3064 66.5365C67.0843 65.7904 67.8622 64.1077 68.6401 61.52L77.5936 31.929C78.0698 30.3256 77.8793 28.8969 77.0062 27.6904C76.1489 26.468 74.8948 25.8647 73.2914 25.8647H48.4312C48.1454 25.8647 47.5898 25.96 46.7643 26.1664L46.796 26.0711C46.1928 25.9441 45.6689 25.8806 45.2403 25.8965C44.8117 25.9124 44.4307 26.0394 44.0655 26.2775C43.7004 26.5156 43.4147 26.7696 43.2083 27.0395C42.986 27.3094 42.7797 27.6586 42.5733 28.0872C42.3669 28.5159 42.1923 28.9127 42.0494 29.262C41.9065 29.6271 41.7478 30.0081 41.5573 30.405C41.3668 30.8019 41.1922 31.1353 41.0175 31.4051C40.8905 31.5798 40.7 31.802 40.4619 32.0878C40.2238 32.3735 40.0333 32.6275 39.8745 32.8339C39.7158 33.0561 39.6205 33.2466 39.5729 33.4213C39.5253 33.6118 39.557 33.8975 39.6364 34.2785C39.7158 34.6595 39.7634 34.9294 39.7317 35.104C39.6364 35.9295 39.3507 36.9773 38.8268 38.2631C38.3188 39.5331 37.8584 40.4539 37.4457 41.0254C37.3504 41.1365 37.1123 41.3746 36.7313 41.7556C36.3344 42.1366 36.0963 42.47 36.0169 42.7558C35.9217 42.8669 35.9217 43.1685 36.001 43.6765C36.0804 44.1845 36.1122 44.5338 36.0804 44.7243C36.001 45.4704 35.7153 46.4388 35.2708 47.6611C34.8104 48.8835 34.35 49.8836 33.9055 50.6615C33.842 50.7885 33.6515 51.0425 33.3499 51.4076C33.0483 51.7728 32.8578 52.0903 32.7943 52.3284C32.7467 52.503 32.7625 52.8046 32.8102 53.2491C32.8578 53.6778 32.8578 54.0111 32.7943 54.2334C32.6197 55.0589 32.2863 56.059 31.81 57.2179C31.3338 58.3768 30.8417 59.3769 30.3337 60.2024C30.2067 60.4246 30.032 60.6786 29.7939 60.9644C29.5717 61.266 29.3812 61.52 29.2542 61.7264C29.1272 61.9486 29.0319 62.1709 28.9843 62.409C28.9684 62.536 29.0002 62.7583 29.0795 63.044C29.1589 63.3456 29.2065 63.5679 29.1748 63.7425C29.1589 64.0442 29.1113 64.4569 29.0478 64.949C28.9843 65.457 28.9525 65.7428 28.9525 65.838C28.4763 67.1398 28.4922 68.5209 29.016 69.9814C29.6193 71.68 30.7147 73.1088 32.2704 74.2835C33.8262 75.4424 35.4454 76.0298 37.1282 76.0298H67.2748C68.6877 76.0298 70.0212 75.5535 71.2753 74.601C72.5294 73.6485 73.3549 72.4897 73.7677 71.0927L82.7529 41.5016C83.2451 39.9459 83.0387 38.533 82.1814 37.2948ZM47.4152 37.3583L48.0978 35.2628C48.193 34.977 48.3677 34.7389 48.6375 34.5325C48.9074 34.3261 49.1932 34.215 49.4789 34.215H69.3386C69.6402 34.215 69.8624 34.3261 69.9894 34.5325C70.1164 34.7389 70.1482 34.977 70.0529 35.2628L69.3703 37.3583C69.2751 37.644 69.1004 37.8821 68.8306 38.0885C68.5607 38.2949 68.2749 38.406 68.0051 38.406H48.1295C47.8279 38.406 47.6057 38.2949 47.4787 38.0885C47.3517 37.898 47.3358 37.644 47.4152 37.3583ZM44.7005 45.7244L45.3832 43.6289C45.4784 43.3431 45.653 43.105 45.9229 42.8986C46.1928 42.6923 46.4785 42.5811 46.7484 42.5811H66.6081C66.9097 42.5811 67.1319 42.6923 67.2589 42.8986C67.3859 43.105 67.4177 43.3431 67.3224 43.6289L66.6398 45.7244C66.5604 46.0101 66.3699 46.2483 66.1001 46.4546C65.8302 46.661 65.5444 46.7721 65.2746 46.7721H45.4308C45.1292 46.7721 44.9069 46.661 44.7799 46.4546C44.637 46.2483 44.6212 46.0101 44.7005 45.7244Z" fill="#FCFCFE"/>
</g>
<defs>
<filter id="filter0_d_1518_240" x="28.6086" y="25.8647" width="59.4065" height="55.165" filterUnits="userSpaceOnUse" color-interpolation-filters="sRGB">
<feFlood flood-opacity="0" result="BackgroundImageFix"/>
<feColorMatrix in="SourceAlpha" type="matrix" values="0 0 0 0 0 0 0 0 0 0 0 0 0 0 0 0 0 0 127 0" result="hardAlpha"/>
<feOffset dx="4" dy="4"/>
<feGaussianBlur stdDeviation="0.5"/>
<feColorMatrix type="matrix" values="0 0 0 0 0 0 0 0 0 0 0 0 0 0 0 0 0 0 0.31 0"/>
<feBlend mode="normal" in2="BackgroundImageFix" result="effect1_dropShadow_1518_240"/>
<feBlend mode="normal" in="SourceGraphic" in2="effect1_dropShadow_1518_240" result="shape"/>
</filter>
<linearGradient id="paint0_linear_1518_240" x1="95.3118" y1="101.697" x2="19.3118" y2="8.19654" gradientUnits="userSpaceOnUse">
<stop stop-color="#FED156"/>
<stop offset="1" stop-color="#FADE92" stop-opacity="0.81"/>
</linearGradient>
</defs>
</svg>
