<svg width="111" height="111" viewBox="0 0 111 111" fill="none" xmlns="http://www.w3.org/2000/svg">
<path d="M75.8118 0.696533H35.8118C16.4818 0.696533 0.811768 16.3666 0.811768 35.6965V75.6965C0.811768 95.0265 16.4818 110.697 35.8118 110.697H75.8118C95.1417 110.697 110.812 95.0265 110.812 75.6965V35.6965C110.812 16.3666 95.1417 0.696533 75.8118 0.696533Z" fill="url(#paint0_linear_1518_244)"/>
<g filter="url(#filter0_d_1518_244)">
<path d="M75.8607 81.615H69.4635L68.1474 77.6972H44.5177L43.2015 81.615H36.8044C35.7331 81.615 34.8455 82.5027 34.8455 83.574C34.8455 84.6452 35.7331 85.5329 36.8044 85.5329H75.8607C76.932 85.5329 77.8196 84.6452 77.8196 83.574C77.8196 82.4721 76.9626 81.615 75.8607 81.615Z" fill="white"/>
<path d="M75.8605 34.723C74.7893 34.723 73.9016 35.6106 73.9016 36.6819C73.9016 37.7532 74.7893 38.6409 75.8605 38.6409C76.9318 38.6409 77.8195 37.7532 77.8195 36.6819C77.8195 35.6106 76.9624 34.723 75.8605 34.723Z" fill="white"/>
<path d="M83.6964 23H28.8462C25.6323 23 23 25.6323 23 28.8462V62.0563H34.8454V56.2101C34.8454 55.1388 35.7331 54.2511 36.8044 54.2511H39.8346C40.0489 53.6696 40.2631 53.1186 40.5386 52.5677L38.396 50.4251C37.6308 49.6599 37.6308 48.4355 38.396 47.6703L43.9055 42.1608C44.6707 41.3956 45.8951 41.3956 46.6603 42.1608L48.8029 44.3034C49.3538 44.0279 49.9048 43.8137 50.4863 43.5994V40.5692C50.4863 39.4979 51.374 38.6103 52.4452 38.6103H60.2504C61.3217 38.6103 62.2093 39.4979 62.2093 40.5692V43.5994C62.7909 43.8137 63.3418 44.0279 63.8928 44.3034L66.0354 42.1608C66.8006 41.3956 68.0249 41.3956 68.7901 42.1608L74.2996 47.6703C75.0648 48.4355 75.0648 49.6599 74.2996 50.4251L72.157 52.5677C72.4325 53.1186 72.6468 53.6696 72.861 54.2511H75.8913C76.9625 54.2511 77.8502 55.1388 77.8502 56.2101V62.0563H89.6956V28.8462C89.665 25.6323 86.9103 23 83.6964 23ZM75.8606 42.5281C72.6162 42.5281 70.0145 39.8958 70.0145 36.6819C70.0145 33.4375 72.6468 30.8357 75.8606 30.8357C79.1051 30.8357 81.7068 33.4681 81.7068 36.6819C81.7375 39.8958 79.1051 42.5281 75.8606 42.5281Z" fill="white"/>
<path d="M50.4863 60.128C50.4863 60.8013 50.6394 61.4441 50.8536 62.0869H61.8114C62.0257 61.4441 62.1787 60.8013 62.1787 60.128C62.1787 56.8835 59.5464 54.2818 56.3325 54.2818C53.1186 54.2511 50.4863 56.8835 50.4863 60.128Z" fill="white"/>
<path d="M43.1401 56.6998C42.9259 57.5568 42.1301 58.169 41.2424 58.169H38.7325V62.0869H46.8132C46.6907 61.4441 46.5683 60.8013 46.5683 60.1279C46.5683 54.7409 50.9453 50.3639 56.3324 50.3639C61.7194 50.3639 66.0964 54.7409 66.0964 60.1279C66.0964 60.8013 65.974 61.4441 65.8516 62.0869H73.9322V58.169H71.4223C70.5346 58.169 69.7388 57.5568 69.5246 56.6998C69.2185 55.4755 68.7287 54.3123 68.086 53.2104C67.6268 52.4452 67.7493 51.4658 68.392 50.823L70.1673 49.0477L67.4126 46.2929L65.6373 48.0682C64.9945 48.711 64.0151 48.8334 63.2498 48.3743C62.1479 47.7315 60.9848 47.2418 59.7605 46.9357C58.9035 46.7215 58.2913 45.9256 58.2913 45.038V42.5281H54.3734V45.038C54.3734 45.9256 53.7612 46.7215 52.9042 46.9357C51.6799 47.2418 50.5168 47.7315 49.4149 48.3743C48.6497 48.8334 47.6702 48.711 47.0274 48.0682L45.2521 46.2929L42.4974 49.0477L44.2727 50.823C44.9154 51.4658 45.0379 52.4146 44.5787 53.2104C43.9666 54.3123 43.4768 55.4755 43.1401 56.6998Z" fill="white"/>
<path d="M23 67.9331C23 71.1776 25.6323 73.7793 28.8462 73.7793H83.6658C86.9103 73.7793 89.665 71.147 89.665 67.9331V65.9741H23V67.9331Z" fill="white"/>
</g>
<defs>
<filter id="filter0_d_1518_244" x="23" y="23" width="71.6957" height="67.5329" filterUnits="userSpaceOnUse" color-interpolation-filters="sRGB">
<feFlood flood-opacity="0" result="BackgroundImageFix"/>
<feColorMatrix in="SourceAlpha" type="matrix" values="0 0 0 0 0 0 0 0 0 0 0 0 0 0 0 0 0 0 127 0" result="hardAlpha"/>
<feOffset dx="4" dy="4"/>
<feGaussianBlur stdDeviation="0.5"/>
<feColorMatrix type="matrix" values="0 0 0 0 0 0 0 0 0 0 0 0 0 0 0 0 0 0 0.31 0"/>
<feBlend mode="normal" in2="BackgroundImageFix" result="effect1_dropShadow_1518_244"/>
<feBlend mode="normal" in="SourceGraphic" in2="effect1_dropShadow_1518_244" result="shape"/>
</filter>
<linearGradient id="paint0_linear_1518_244" x1="95.3118" y1="101.697" x2="19.3118" y2="8.19654" gradientUnits="userSpaceOnUse">
<stop stop-color="#217CBE" stop-opacity="0.75"/>
<stop offset="1" stop-color="#2D95E0" stop-opacity="0.5"/>
</linearGradient>
</defs>
</svg>
