<svg width="111" height="111" viewBox="0 0 111 111" fill="none" xmlns="http://www.w3.org/2000/svg">
<path d="M75.8113 0.696533H35.8113C16.4813 0.696533 0.811279 16.3666 0.811279 35.6965V75.6965C0.811279 95.0265 16.4813 110.697 35.8113 110.697H75.8113C95.1412 110.697 110.811 95.0265 110.811 75.6965V35.6965C110.811 16.3666 95.1412 0.696533 75.8113 0.696533Z" fill="url(#paint0_linear_1518_246)"/>
<g filter="url(#filter0_d_1518_246)">
<path d="M30.5346 82.0641C26.9332 82.0641 24 79.1309 24 75.5294V32.5346C24 28.9332 26.9332 26 30.5346 26H79.0987C82.7002 26 85.6333 28.9332 85.6333 32.5346V75.4923C85.6333 76.8661 85.1878 78.2398 84.3339 79.3537C84.2596 79.4651 84.1853 79.5765 84.074 79.6878C82.8487 81.173 81.0294 82.0269 79.0987 82.0269H30.5346V82.0641ZM78.0591 76.4577L68.8141 60.5295L63.0963 70.1829L66.7349 76.4577H78.0591ZM29.6064 75.5294C29.6064 76.0492 30.0148 76.4577 30.5346 76.4577H60.2374L44.5321 49.2796L29.6064 74.3413V75.5294ZM68.8513 52.1756C69.8537 52.1756 70.7819 52.7325 71.2646 53.5865L80.0269 68.7349V32.5346C80.0269 32.0148 79.6185 31.6064 79.0987 31.6064H30.5346C30.0148 31.6064 29.6064 32.0148 29.6064 32.5346V63.3884L42.1558 42.3365C42.6756 41.4826 43.5667 40.9628 44.5692 40.9628C45.5717 40.9628 46.4999 41.5197 46.9826 42.3737L59.8662 64.6137L66.4379 53.5494C66.9206 52.6954 67.8488 52.1756 68.8513 52.1756Z" fill="white"/>
<path d="M83.7771 32.5347C83.7771 29.9728 81.6979 27.8565 79.0989 27.8565H30.5348C27.9729 27.8565 25.8566 29.9728 25.8566 32.5347V75.4924C25.8566 78.0542 27.9358 80.1706 30.5348 80.1706H79.0989C80.5097 80.1706 81.8092 79.5394 82.7003 78.4255C82.7375 78.3884 82.8117 78.3141 82.8488 78.277C83.4429 77.4602 83.7771 76.4948 83.7771 75.4924V32.5347ZM30.5348 29.75H79.0989C80.6583 29.75 81.8835 31.0124 81.8835 32.5347V75.4924C81.8835 75.5295 81.8835 75.6038 81.8835 75.6409L69.6311 54.4776C69.4826 54.1806 69.1484 53.995 68.8143 53.995C68.4801 53.995 68.1831 54.1806 67.9974 54.4405L59.792 68.2523L45.3119 43.2648C45.1634 42.9678 44.8292 42.7821 44.4951 42.7821C44.1609 42.7821 43.8639 42.9678 43.6783 43.2277L27.6759 70.1459V32.5347C27.7501 31.0124 29.0125 29.75 30.5348 29.75ZM27.7501 75.5295V73.8587L44.5693 45.6039L63.5049 78.3141H30.5348C29.0125 78.3141 27.7501 77.0518 27.7501 75.5295ZM65.6583 78.3141L60.9059 70.1459L68.8514 56.8167L80.9182 77.6458C80.4355 78.0542 79.8043 78.3141 79.136 78.3141H65.6583Z" fill="white"/>
<path d="M68.8513 52.1757C64.2102 52.1757 60.4602 48.3886 60.4602 43.7846C60.4602 39.1436 64.2473 35.3565 68.8884 35.3565C73.5294 35.3565 77.3166 39.1436 77.3166 43.7846C77.3166 48.4257 73.4923 52.1757 68.8513 52.1757ZM68.8513 40.9629C67.2919 40.9629 66.0666 42.2252 66.0666 43.7475C66.0666 45.3069 67.329 46.5321 68.8513 46.5321C70.4107 46.5321 71.6359 45.2698 71.6359 43.7475C71.6359 42.2252 70.3735 40.9629 68.8513 40.9629Z" fill="white"/>
<path d="M68.8513 50.2821C72.4527 50.2821 75.3859 47.349 75.3859 43.7475C75.3859 40.146 72.4527 37.2129 68.8513 37.2129C65.2498 37.2129 62.3167 40.146 62.3167 43.7475C62.3167 47.349 65.2498 50.2821 68.8513 50.2821ZM68.8513 39.0693C71.4131 39.0693 73.5295 41.1485 73.5295 43.7475C73.5295 46.3094 71.4503 48.4257 68.8513 48.4257C66.2894 48.4257 64.1731 46.3465 64.1731 43.7475C64.1731 41.1856 66.2523 39.0693 68.8513 39.0693Z" fill="white"/>
</g>
<defs>
<filter id="filter0_d_1518_246" x="24" y="26" width="66.6333" height="61.0641" filterUnits="userSpaceOnUse" color-interpolation-filters="sRGB">
<feFlood flood-opacity="0" result="BackgroundImageFix"/>
<feColorMatrix in="SourceAlpha" type="matrix" values="0 0 0 0 0 0 0 0 0 0 0 0 0 0 0 0 0 0 127 0" result="hardAlpha"/>
<feOffset dx="4" dy="4"/>
<feGaussianBlur stdDeviation="0.5"/>
<feColorMatrix type="matrix" values="0 0 0 0 0 0 0 0 0 0 0 0 0 0 0 0 0 0 0.31 0"/>
<feBlend mode="normal" in2="BackgroundImageFix" result="effect1_dropShadow_1518_246"/>
<feBlend mode="normal" in="SourceGraphic" in2="effect1_dropShadow_1518_246" result="shape"/>
</filter>
<linearGradient id="paint0_linear_1518_246" x1="99.3113" y1="100.197" x2="23.3113" y2="0.696535" gradientUnits="userSpaceOnUse">
<stop stop-color="#FFCC40"/>
<stop offset="1" stop-color="#FFCC40" stop-opacity="0.51"/>
</linearGradient>
</defs>
</svg>
